<svg width="3497" height="562" viewBox="0 0 3497 562" fill="none" xmlns="http://www.w3.org/2000/svg">
<path d="M3154.89 160.697L3153.09 381.171C3151.44 409.87 3172.91 408 3171.11 381.171L3172.91 160.697C3174.56 134.84 3153.09 136.712 3154.89 160.697Z" fill="#0D758C"/>
<path d="M3061.82 214.796L3060 331.204C3061.82 350.605 3078.18 345.754 3078.18 331.204L3080 214.796C3078.18 195.396 3061.82 200.245 3061.82 214.796Z" fill="#0D758C"/>
<path d="M2968.82 216.633L2967 313.366C2968.82 329.488 2985.18 325.458 2985.18 313.366L2987 216.633C2985.18 200.512 2968.82 204.541 2968.82 216.633Z" fill="#0D758C"/>
<path d="M3013 310.797V233.88C3014.67 216.129 3033 220.074 3033 233.88V310.797C3031.33 328.547 3013 322.631 3013 310.797Z" fill="#0D758C"/>
<path d="M3467.66 468.387C3384.45 456.907 3260 446.72 3163 502C3210.61 485.648 3338.18 456.032 3467.66 468.387Z" fill="#0D758C"/>
<path d="M3163 502C3078.13 470.624 2942.4 467.535 2872.02 470.255C2884.68 469.457 2897.7 468.239 2911.1 466.984L2911.1 466.984C2982.55 460.297 3064.96 452.584 3163 502Z" fill="#0D758C"/>
<path d="M3293 233.88V310.797C3293 322.631 3311.33 328.547 3313 310.797V233.88C3313 220.074 3294.67 216.129 3293 233.88Z" fill="#0D758C"/>
<path d="M3339 313.366L3340.82 216.633C3340.82 204.541 3357.18 200.512 3359 216.633L3357.18 313.366C3357.18 325.458 3340.82 329.489 3339 313.366Z" fill="#0D758C"/>
<path d="M3246 331.204L3247.82 214.796C3247.82 200.245 3264.18 195.396 3266 214.796L3264.18 331.204C3264.18 345.754 3247.82 350.605 3246 331.204Z" fill="#0D758C"/>
<path d="M3199 350.449L3200.82 188.839C3200.67 171.074 3219 167.131 3219 188.839L3217.18 350.449C3217.33 370.186 3199 372.157 3199 350.449Z" fill="#0D758C"/>
<path d="M3108.82 188.839L3107 350.449C3107 372.157 3125.33 370.186 3125.18 350.449L3127 188.839C3127 167.131 3108.67 171.074 3108.82 188.839Z" fill="#0D758C"/>
<path d="M4.55293 446.037C4.55293 447.704 5.55293 451.537 9.55293 453.537C14.5529 456.037 34.0529 458.537 52.5529 453.537C54.3863 452.537 58.0529 449.837 58.0529 447.037V312.538H170.553C172.886 312.204 179 311 181 303.5C184.5 289.5 181 279.5 180 276.5C178.5 272 174.5 266.5 170.553 266.538H58.0529V151.537H185.053C186.386 151.371 189.253 149.537 190.053 143.537V109.037C189.553 107.537 187.853 104.637 185.053 105.037H16.0529C11.7196 105.371 3.25293 108.738 4.05293 119.538L4.55293 446.037Z" fill="#0D758C"/>
<path d="M350.427 441.187C333.035 455.679 298.5 463.5 265.5 443.5C250.573 432 250.8 419.778 250 391.778V86.5636C250 84.186 250.25 79.9972 255.427 77.6864C262.354 74.5942 279.927 71.1861 296 77.7784C297.927 78.6861 301.427 80.6861 302 86.5636C301.667 187.968 301.2 390.978 302 391.778C302.167 397.778 302.427 413.408 312 416C318.167 417.167 330.427 412.187 335.927 410.187C338.712 409.174 350.427 403.687 353.427 410.187C356.427 416.687 356.427 436.187 350.427 441.187Z" fill="#0D758C"/>
<path d="M399.11 200.8C398.776 199.3 399.01 195.9 402.61 194.3C410.11 190.3 429.609 184.7 447.609 194.3C448.609 194.8 450.709 196.8 451.109 200.8V372.3C451.109 374.3 451.5 378.5 451.609 379.3C452.5 387 458 401 469.109 406.3C476.943 410.134 495.5 414 510.609 409.3C514 408 521.909 405.7 529.109 401.3C534.943 397.634 547.609 388 551.609 378.8V200.8C551.609 199.134 552.28 195.685 554.609 194.3C561 190.5 581.5 184.499 600.609 194.3C601.893 194.959 603.609 197.082 603.609 200.8V378.8C603.276 384.8 603.009 399 604.609 407.8C605.943 417.467 608.5 437 608.609 438.8C608.715 440.547 608.85 443.126 604.609 445.3C598.109 448.634 581.909 454.7 569.109 452.3C566.943 451.8 563 449.5 561.109 445.3C559.443 441.634 555.809 431.1 554.609 418.3C546.276 426.8 525.5 442.5 510.609 448.8C503.943 452.3 486.5 457.5 469.109 455.3C455.5 454 428 447.5 412.609 426.8C409 421.946 399.109 406.3 399.109 379.3L399.11 200.8Z" fill="#0D758C"/>
<path fill-rule="evenodd" clip-rule="evenodd" d="M737.954 341.684H886.954C893.5 341.5 904.354 333.984 905.954 319.184C906.5 302 903 263 891.454 240.184C884 226.5 868 203.5 837.954 193.184C825.454 188.517 792.854 181.984 762.454 193.184C754 196 738.5 202.5 725.454 213.184C721 216.5 710 227 702.454 240.184C696.288 249.684 685.5 277 684.454 310.184C684.042 323.253 685.942 352.5 688.955 372.684C691 384 698.955 410.584 718.955 428.184C726.288 436.184 750.955 452.984 790.955 456.184C801.621 457.517 828.255 458.384 849.455 451.184C860.5 447.433 884.455 439.784 896.455 428.184C897.455 427.351 899.455 424.884 899.455 421.684C898.955 413.851 895.355 397.184 884.955 393.184C874.955 397.851 853.855 407.284 849.455 407.684C840.788 411.517 816.955 417.884 790.955 412.684C782.621 411.684 763.055 406.384 751.455 393.184C746.454 387.851 736.754 370.084 737.954 341.684ZM750.955 252.184C738.155 269.384 736.954 292.684 737.954 302.184H855.455C859.055 280.984 849.288 260.017 843.955 252.184C804.355 212.984 765.455 235.851 750.955 252.184Z" fill="#0D758C"/>
<path d="M997.33 444.832C997.163 447.332 998.13 452.732 1003.33 454.332C1009.83 456.666 1027.03 459.932 1043.83 454.332C1045.5 453.666 1048.93 450.832 1049.33 444.832L1050 268.5C1050 268.5 1050.62 265.939 1050.83 265.332C1053 259 1067 246.5 1079.83 240.332C1087.5 236.5 1107.13 229.932 1132.33 240.332C1140 245 1146.5 255 1148.5 265.5L1149 268.5L1149.83 444.832C1149.5 447.166 1150.23 452.333 1155.83 454.332C1162.66 456.332 1180.63 459.133 1197.83 454.332C1199.5 453.166 1202.63 449.633 1201.83 444.832V268.332C1201.5 260.499 1200.14 244.14 1198.83 240.332C1197 235 1192.66 224.166 1185.83 216.832C1179 209.499 1171.5 202 1148.83 194.332C1136 190.666 1104.23 186.932 1079.83 201.332C1072.5 204.999 1056.13 214.733 1049.33 224.333L1046.33 228.833C1045.16 219.999 1041.73 201.533 1037.33 198.333C1035.83 196.999 1032.33 194.833 1028.33 194.833C1019.83 194.832 1001.43 196.132 995.83 201.332C994.997 201.999 993.13 203.933 992.33 206.333C991.33 209.333 993.578 220 993.83 222.333C994.497 228.499 995.83 241.033 995.83 241.833L997.33 444.832Z" fill="#0D758C"/>
<path d="M1438.45 247.096C1437.31 248.088 1435.65 249.496 1430.45 247.096C1418.61 242.096 1396.81 235.999 1386.45 234.096C1375.78 231.929 1353.31 226.999 1329.95 247.096C1325.28 252.096 1315.25 264.896 1312.45 276.096C1304.61 305.762 1296.45 372.196 1326.45 400.596C1332.45 407.262 1352.85 419.796 1386.45 416.596C1394.95 415.262 1415.65 410.596 1430.45 402.596L1438.45 398.596C1440.11 397.596 1444.15 397.396 1446.95 404.596C1449.45 409.262 1454.55 419.896 1454.95 425.096C1455.28 427.596 1454.31 431.999 1449.45 436.596C1441.28 443.429 1417.25 457.496 1386.45 459.096C1374.45 459.929 1346.31 459.499 1326.45 453.096C1295.81 443.499 1232.35 403.296 1257.95 276.096C1260.28 267.096 1266.95 246.496 1274.95 236.096C1286.11 218.262 1317.81 184.499 1386.45 192.096C1399.31 192.999 1417.55 194.999 1435.95 204.096C1440.81 206.499 1447.95 210.296 1449.95 215.096C1450.61 216.429 1451.65 220.396 1450.45 225.596C1449.11 231.429 1444.31 241.999 1438.45 247.096Z" fill="#0D758C"/>
<path d="M1482.56 205.8C1481.34 203 1479.34 200.5 1483.56 195.8C1484.91 194.304 1489.53 192.412 1496.56 191.8C1504.23 191.133 1520.34 191 1527.56 193.8C1530.05 194.764 1533.34 196.5 1535.06 202.3L1594.56 384.3H1596.06L1656.56 201.8C1657.23 199.633 1659.66 195 1664.06 193.8C1673.56 191.133 1695.16 188 1705.56 196.8C1706.56 198.133 1708.06 201.9 1706.06 206.3L1618.56 442.3L1580.06 545.3C1578.84 548.5 1575.84 553.5 1568.06 555.8C1560.84 557.5 1542.56 559.8 1532.56 553.8C1530.73 552.633 1528.34 549.5 1530.06 545.3L1569.56 446.8L1482.56 205.8Z" fill="#0D758C"/>
<path fill-rule="evenodd" clip-rule="evenodd" d="M1751 445.5C1751 448.833 1752.5 454.212 1758 456C1764.67 458.167 1782.3 461.2 1799.5 456C1802 455 1805.5 452 1805.5 445.5V314C1832.33 314.833 1888.5 314 1900 311.5C1913.17 310 1944.4 301.1 1964 277.5C1978.5 257 1998.8 201.7 1964 144.5C1958 134.667 1939.5 112.5 1900 109.5L1805.5 107H1785.5L1765 107.5C1760.5 107.5 1751.4 109.9 1751 121.5V445.5ZM1878.5 153.5H1805.5V267.5H1878.5C1904.5 267 1918.17 252.333 1922 244.5C1935.2 219.7 1927.5 189.5 1922 177.5C1912.8 159.1 1893 153.5 1878.5 153.5Z" fill="#0D758C"/>
<path fill-rule="evenodd" clip-rule="evenodd" d="M2163.36 289.891C2138.03 289.724 2083.26 291.491 2066.86 299.891C2046.03 300.891 2004.36 316.791 2004.36 372.391C2002.03 396.224 2009.96 445.791 2060.36 453.391C2074.53 456.557 2109.16 459.191 2134.36 444.391C2142.36 439.891 2159.86 428.291 2165.86 417.891C2167.36 426.891 2171.26 445.591 2174.86 448.391C2175.86 449.724 2179.86 452.391 2187.86 452.391C2195.86 451.891 2213.16 449.591 2218.36 444.391C2219.03 443.891 2220.36 442.091 2220.36 438.891C2219.69 435.391 2218.36 427.991 2218.36 426.391C2217.03 419.557 2214.56 403.691 2215.36 394.891V267.891C2215.53 257.391 2213.56 234.491 2204.36 226.891C2200.03 219.224 2185.76 202.091 2163.36 194.891C2153.19 191.557 2127.66 185.391 2106.86 187.391C2084.53 189.557 2036.06 197.991 2020.86 214.391C2020.03 215.391 2018.56 217.891 2019.36 219.891C2019.69 226.057 2022.56 240.291 2031.36 247.891C2032.36 248.724 2035.06 249.991 2037.86 248.391C2050.36 242.724 2078.26 231.491 2089.86 231.891C2111.69 227.057 2156.96 226.491 2163.36 262.891V289.891ZM2163.36 379.391V329.891C2119.36 323.491 2084.69 336.557 2072.86 343.891C2040.86 371.891 2059.53 398.557 2072.86 408.391C2108.46 425.591 2148.03 396.224 2163.36 379.391Z" fill="#0D758C"/>
<path d="M2354 191.266V139.766C2354.33 136.932 2353 130.766 2345 128.766C2340.67 127.432 2324.6 125.567 2313 128.767C2310.17 129.267 2304.9 132.166 2304.5 139.766V191.266H2274.5C2271.83 191.599 2266.8 194.565 2268 203.765V222.265C2267.83 225.099 2268.9 231.165 2274.5 232.765C2275.33 233.099 2278.1 233.765 2282.5 233.765H2301.5V393.765C2301.67 402.265 2303.8 421.165 2311 428.765C2315.67 436.599 2330.8 452.865 2354 455.265C2359.5 456.099 2374.1 456.765 2388.5 452.765C2393.33 451.432 2404.1 447.065 2408.5 440.265C2408.83 439.932 2409.5 438.765 2409.5 436.765C2408.83 430.265 2406.6 415.765 2403 409.765C2402.17 408.099 2399.4 405.465 2395 408.265C2392.33 409.932 2385.3 413.165 2378.5 412.765C2373 413.099 2361.3 412.465 2358.5 407.265C2356.5 405.099 2352.7 397.265 2353.5 383.265V233.765H2393.5C2396.33 233.765 2402.2 231.965 2403 224.765C2404.17 219.599 2405.8 207.265 2403 199.265C2402.33 196.599 2399.7 191.266 2394.5 191.266H2354Z" fill="#0D758C"/>
<path d="M2475.11 90.4372C2475.11 88.8434 2475.5 86 2478.61 83.9372C2485.44 80.1038 2506.49 70.9633 2524.11 84.4372C2525.5 85.5003 2526.5 86.5009 2526.61 90.4372V225.937C2530.78 220.77 2541 212.001 2547.61 207.937C2564.94 195.437 2610.71 177.937 2655.11 207.937C2662.44 212.77 2677.41 229.137 2678.61 255.937V445.437C2678.5 447.501 2678 453.001 2670.61 455.437C2663 457.501 2644.61 458.537 2634.61 454.937C2632.27 454.093 2628 452.501 2627.61 445.437V275.937C2627.61 269.604 2626.11 255.537 2620.11 249.937C2610.94 238.604 2582.81 222.537 2543.61 248.937C2538.94 252.27 2529.01 260.837 2526.61 268.437V445.437C2526.5 448.501 2524.5 452.501 2519.61 454.937C2514.94 456.77 2499.5 460.501 2480.11 454.937C2477.67 454.237 2475.11 451.501 2475.11 445.437V90.4372Z" fill="#0D758C"/>
<path d="M3467.66 468.387C3384.45 456.907 3260 446.72 3163 502M3467.66 468.387C3338.18 456.032 3210.61 485.648 3163 502M3467.66 468.387C3474.5 469.331 3479.9 466.104 3484.33 462.041C3488.75 457.977 3491.23 452.466 3491.23 446.72C3451.36 275.835 3445.19 183.012 3492 25.8308C3493 21.8306 3493 20.8306 3492 18.3306C3491 15.8306 3489.55 13.7704 3486.5 11.3308C3484.17 9.46731 3481.72 8.54578 3479.08 7.55111L3478.5 7.33057C3475 6.33057 3472.07 5.87414 3469 5.83057C3316.07 3.66098 3271.5 17.4305 3163 78.3306C3070 17.4305 2989.5 4.00015 2856.57 4.00015C2853.47 3.98941 2850.4 4.54251 2847.54 5.62756C2844.67 6.7126 2842.07 8.30814 2839.88 10.3222C2837.69 12.3363 2835.95 14.7291 2834.77 17.3626C2833.59 19.9962 2832.99 22.8185 2833 25.6668C2860.43 203.002 2858.44 294.273 2833 446.72C2833 460.099 2842.02 471.456 2856.57 471M3163 502C3078.13 470.624 2942.4 467.535 2872.02 470.255M3163 502C3064.96 452.584 2982.55 460.297 2911.1 466.984L2911.1 466.984C2897.7 468.239 2884.68 469.457 2872.02 470.255M2872.02 470.255C2866.44 470.47 2861.27 470.723 2856.57 471M2872.02 470.255C2866.81 470.583 2861.66 470.841 2856.57 471M3153.09 381.171L3154.89 160.697C3153.09 136.712 3174.56 134.84 3172.91 160.697L3171.11 381.171C3172.91 408 3151.44 409.87 3153.09 381.171ZM3060 331.204L3061.82 214.796C3061.82 200.245 3078.18 195.396 3080 214.796L3078.18 331.204C3078.18 345.754 3061.82 350.605 3060 331.204ZM2967 313.366L2968.82 216.633C2968.82 204.541 2985.18 200.512 2987 216.633L2985.18 313.366C2985.18 325.458 2968.82 329.488 2967 313.366ZM3013 233.88V310.797C3013 322.631 3031.33 328.547 3033 310.797V233.88C3033 220.074 3014.67 216.129 3013 233.88ZM3293 310.797V233.88C3294.67 216.129 3313 220.074 3313 233.88V310.797C3311.33 328.547 3293 322.631 3293 310.797ZM3340.82 216.633L3339 313.366C3340.82 329.489 3357.18 325.458 3357.18 313.366L3359 216.633C3357.18 200.512 3340.82 204.541 3340.82 216.633ZM3247.82 214.796L3246 331.204C3247.82 350.605 3264.18 345.754 3264.18 331.204L3266 214.796C3264.18 195.396 3247.82 200.245 3247.82 214.796ZM3200.82 188.839L3199 350.449C3199 372.157 3217.33 370.186 3217.18 350.449L3219 188.839C3219 167.131 3200.67 171.074 3200.82 188.839ZM3107 350.449L3108.82 188.839C3108.67 171.074 3127 167.131 3127 188.839L3125.18 350.449C3125.33 370.186 3107 372.157 3107 350.449ZM4.55293 446.037C4.55293 447.704 5.55293 451.537 9.55293 453.537C14.5529 456.037 34.0529 458.537 52.5529 453.537C54.3863 452.537 58.0529 449.837 58.0529 447.037V312.538H170.553C172.886 312.204 179 311 181 303.5C184.5 289.5 181 279.5 180 276.5C178.5 272 174.5 266.5 170.553 266.538H58.0529V151.537H185.053C186.386 151.371 189.253 149.537 190.053 143.537V109.037C189.553 107.537 187.853 104.637 185.053 105.037H16.0529C11.7196 105.371 3.25293 108.738 4.05293 119.538L4.55293 446.037ZM350.427 441.187C333.035 455.679 298.5 463.5 265.5 443.5C250.573 432 250.8 419.778 250 391.778V86.5636C250 84.186 250.25 79.9972 255.427 77.6864C262.354 74.5942 279.927 71.1861 296 77.7784C297.927 78.6861 301.427 80.6861 302 86.5636C301.667 187.968 301.2 390.978 302 391.778C302.167 397.778 302.427 413.408 312 416C318.167 417.167 330.427 412.187 335.927 410.187C338.712 409.174 350.427 403.687 353.427 410.187C356.427 416.687 356.427 436.187 350.427 441.187ZM399.11 200.8C398.776 199.3 399.01 195.9 402.61 194.3C410.11 190.3 429.609 184.7 447.609 194.3C448.609 194.8 450.709 196.8 451.109 200.8V372.3C451.109 374.3 451.5 378.5 451.609 379.3C452.5 387 458 401 469.109 406.3C476.943 410.134 495.5 414 510.609 409.3C514 408 521.909 405.7 529.109 401.3C534.943 397.634 547.609 388 551.609 378.8V200.8C551.609 199.134 552.28 195.685 554.609 194.3C561 190.5 581.5 184.499 600.609 194.3C601.893 194.959 603.609 197.082 603.609 200.8V378.8C603.276 384.8 603.009 399 604.609 407.8C605.943 417.467 608.5 437 608.609 438.8C608.715 440.547 608.85 443.126 604.609 445.3C598.109 448.634 581.909 454.7 569.109 452.3C566.943 451.8 563 449.5 561.109 445.3C559.443 441.634 555.809 431.1 554.609 418.3C546.276 426.8 525.5 442.5 510.609 448.8C503.943 452.3 486.5 457.5 469.109 455.3C455.5 454 428 447.5 412.609 426.8C409 421.946 399.109 406.3 399.109 379.3L399.11 200.8ZM737.954 341.684H886.954C893.5 341.5 904.354 333.984 905.954 319.184C906.5 302 903 263 891.454 240.184C884 226.5 868 203.5 837.954 193.184C825.454 188.517 792.854 181.984 762.454 193.184C754 196 738.5 202.5 725.454 213.184C721 216.5 710 227 702.454 240.184C696.288 249.684 685.5 277 684.454 310.184C684.042 323.253 685.942 352.5 688.955 372.684C691 384 698.955 410.584 718.955 428.184C726.288 436.184 750.955 452.984 790.955 456.184C801.621 457.517 828.255 458.384 849.455 451.184C860.5 447.433 884.455 439.784 896.455 428.184C897.455 427.351 899.455 424.884 899.455 421.684C898.955 413.851 895.355 397.184 884.955 393.184C874.955 397.851 853.855 407.284 849.455 407.684C840.788 411.517 816.955 417.884 790.955 412.684C782.621 411.684 763.055 406.384 751.455 393.184C746.454 387.851 736.754 370.084 737.954 341.684ZM737.954 302.184C736.954 292.684 738.155 269.384 750.955 252.184C765.455 235.851 804.355 212.984 843.955 252.184C849.288 260.017 859.055 280.984 855.455 302.184H737.954ZM997.33 444.832C997.163 447.332 998.13 452.732 1003.33 454.332C1009.83 456.666 1027.03 459.932 1043.83 454.332C1045.5 453.666 1048.93 450.832 1049.33 444.832L1050 268.5C1050 268.5 1050.62 265.939 1050.83 265.332C1053 259 1067 246.5 1079.83 240.332C1087.5 236.5 1107.13 229.932 1132.33 240.332C1140 245 1146.5 255 1148.5 265.5L1149 268.5L1149.83 444.832C1149.5 447.166 1150.23 452.333 1155.83 454.332C1162.66 456.332 1180.63 459.133 1197.83 454.332C1199.5 453.166 1202.63 449.633 1201.83 444.832V268.332C1201.5 260.499 1200.14 244.14 1198.83 240.332C1197 235 1192.66 224.166 1185.83 216.832C1179 209.499 1171.5 202 1148.83 194.332C1136 190.666 1104.23 186.932 1079.83 201.332C1072.5 204.999 1056.13 214.733 1049.33 224.333L1046.33 228.833C1045.16 219.999 1041.73 201.533 1037.33 198.333C1035.83 196.999 1032.33 194.833 1028.33 194.833C1019.83 194.832 1001.43 196.132 995.83 201.332C994.997 201.999 993.13 203.933 992.33 206.333C991.33 209.333 993.578 220 993.83 222.333C994.497 228.499 995.83 241.033 995.83 241.833L997.33 444.832ZM1438.45 247.096C1437.31 248.088 1435.65 249.496 1430.45 247.096C1418.61 242.096 1396.81 235.999 1386.45 234.096C1375.78 231.929 1353.31 226.999 1329.95 247.096C1325.28 252.096 1315.25 264.896 1312.45 276.096C1304.61 305.762 1296.45 372.196 1326.45 400.596C1332.45 407.262 1352.85 419.796 1386.45 416.596C1394.95 415.262 1415.65 410.596 1430.45 402.596L1438.45 398.596C1440.11 397.596 1444.15 397.396 1446.95 404.596C1449.45 409.262 1454.55 419.896 1454.95 425.096C1455.28 427.596 1454.31 431.999 1449.45 436.596C1441.28 443.429 1417.25 457.496 1386.45 459.096C1374.45 459.929 1346.31 459.499 1326.45 453.096C1295.81 443.499 1232.35 403.296 1257.95 276.096C1260.28 267.096 1266.95 246.496 1274.95 236.096C1286.11 218.262 1317.81 184.499 1386.45 192.096C1399.31 192.999 1417.55 194.999 1435.95 204.096C1440.81 206.499 1447.95 210.296 1449.95 215.096C1450.61 216.429 1451.65 220.396 1450.45 225.596C1449.11 231.429 1444.31 241.999 1438.45 247.096ZM1482.56 205.8C1481.34 203 1479.34 200.5 1483.56 195.8C1484.91 194.304 1489.53 192.412 1496.56 191.8C1504.23 191.133 1520.34 191 1527.56 193.8C1530.05 194.764 1533.34 196.5 1535.06 202.3L1594.56 384.3H1596.06L1656.56 201.8C1657.23 199.633 1659.66 195 1664.06 193.8C1673.56 191.133 1695.16 188 1705.56 196.8C1706.56 198.133 1708.06 201.9 1706.06 206.3L1618.56 442.3L1580.06 545.3C1578.84 548.5 1575.84 553.5 1568.06 555.8C1560.84 557.5 1542.56 559.8 1532.56 553.8C1530.73 552.633 1528.34 549.5 1530.06 545.3L1569.56 446.8L1482.56 205.8ZM1751 445.5C1751 448.833 1752.5 454.212 1758 456C1764.67 458.167 1782.3 461.2 1799.5 456C1802 455 1805.5 452 1805.5 445.5V314C1832.33 314.833 1888.5 314 1900 311.5C1913.17 310 1944.4 301.1 1964 277.5C1978.5 257 1998.8 201.7 1964 144.5C1958 134.667 1939.5 112.5 1900 109.5L1805.5 107H1785.5L1765 107.5C1760.5 107.5 1751.4 109.9 1751 121.5V445.5ZM1805.5 153.5H1878.5C1893 153.5 1912.8 159.1 1922 177.5C1927.5 189.5 1935.2 219.7 1922 244.5C1918.17 252.333 1904.5 267 1878.5 267.5H1805.5V153.5ZM2163.36 289.891C2138.03 289.724 2083.26 291.491 2066.86 299.891C2046.03 300.891 2004.36 316.791 2004.36 372.391C2002.03 396.224 2009.96 445.791 2060.36 453.391C2074.53 456.557 2109.16 459.191 2134.36 444.391C2142.36 439.891 2159.86 428.291 2165.86 417.891C2167.36 426.891 2171.26 445.591 2174.86 448.391C2175.86 449.724 2179.86 452.391 2187.86 452.391C2195.86 451.891 2213.16 449.591 2218.36 444.391C2219.03 443.891 2220.36 442.091 2220.36 438.891C2219.69 435.391 2218.36 427.991 2218.36 426.391C2217.03 419.557 2214.56 403.691 2215.36 394.891V267.891C2215.53 257.391 2213.56 234.491 2204.36 226.891C2200.03 219.224 2185.76 202.091 2163.36 194.891C2153.19 191.557 2127.66 185.391 2106.86 187.391C2084.53 189.557 2036.06 197.991 2020.86 214.391C2020.03 215.391 2018.56 217.891 2019.36 219.891C2019.69 226.057 2022.56 240.291 2031.36 247.891C2032.36 248.724 2035.06 249.991 2037.86 248.391C2050.36 242.724 2078.26 231.491 2089.86 231.891C2111.69 227.057 2156.96 226.491 2163.36 262.891V289.891ZM2163.36 329.891V379.391C2148.03 396.224 2108.46 425.591 2072.86 408.391C2059.53 398.557 2040.86 371.891 2072.86 343.891C2084.69 336.557 2119.36 323.491 2163.36 329.891ZM2354 191.266V139.766C2354.33 136.932 2353 130.766 2345 128.766C2340.67 127.432 2324.6 125.567 2313 128.767C2310.17 129.267 2304.9 132.166 2304.5 139.766V191.266H2274.5C2271.83 191.599 2266.8 194.565 2268 203.765V222.265C2267.83 225.099 2268.9 231.165 2274.5 232.765C2275.33 233.099 2278.1 233.765 2282.5 233.765H2301.5V393.765C2301.67 402.265 2303.8 421.165 2311 428.765C2315.67 436.599 2330.8 452.865 2354 455.265C2359.5 456.099 2374.1 456.765 2388.5 452.765C2393.33 451.432 2404.1 447.065 2408.5 440.265C2408.83 439.932 2409.5 438.765 2409.5 436.765C2408.83 430.265 2406.6 415.765 2403 409.765C2402.17 408.099 2399.4 405.465 2395 408.265C2392.33 409.932 2385.3 413.165 2378.5 412.765C2373 413.099 2361.3 412.465 2358.5 407.265C2356.5 405.099 2352.7 397.265 2353.5 383.265V233.765H2393.5C2396.33 233.765 2402.2 231.965 2403 224.765C2404.17 219.599 2405.8 207.265 2403 199.265C2402.33 196.599 2399.7 191.266 2394.5 191.266H2354ZM2475.11 90.4372C2475.11 88.8434 2475.5 86 2478.61 83.9372C2485.44 80.1038 2506.49 70.9633 2524.11 84.4372C2525.5 85.5003 2526.5 86.5009 2526.61 90.4372V225.937C2530.78 220.77 2541 212.001 2547.61 207.937C2564.94 195.437 2610.71 177.937 2655.11 207.937C2662.44 212.77 2677.41 229.137 2678.61 255.937V445.437C2678.5 447.501 2678 453.001 2670.61 455.437C2663 457.501 2644.61 458.537 2634.61 454.937C2632.27 454.093 2628 452.501 2627.61 445.437V275.937C2627.61 269.604 2626.11 255.537 2620.11 249.937C2610.94 238.604 2582.81 222.537 2543.61 248.937C2538.94 252.27 2529.01 260.837 2526.61 268.437V445.437C2526.5 448.501 2524.5 452.501 2519.61 454.937C2514.94 456.77 2499.5 460.501 2480.11 454.937C2477.67 454.237 2475.11 451.501 2475.11 445.437V90.4372Z" stroke="#0D758C" stroke-width="8"/>
</svg>
