<svg width="3510" height="559" viewBox="0 0 3510 559" fill="none" xmlns="http://www.w3.org/2000/svg">
<path d="M329.427 438.187C312.035 452.679 277.5 460.5 244.5 440.5C230.13 429.429 229.804 417.69 229.086 391.848L229 388.778V83.5636C229 81.186 229.25 76.9972 234.427 74.6865C241.354 71.5943 258.927 68.1861 275 74.7784C276.927 75.6861 280.427 77.6861 281 83.5636C280.667 184.968 280.2 387.978 281 388.778L281.009 389.096C281.178 395.312 281.591 410.453 291 413C296.511 414.043 306.887 410.177 312.957 407.915C313.68 407.646 314.342 407.399 314.927 407.187C315.201 407.087 315.562 406.944 315.993 406.773C319.936 405.209 329.722 401.327 332.427 407.187C335.427 413.687 335.427 433.187 329.427 438.187Z" fill="#FAFAFA"/>
<path d="M5.55293 442.038C5.55293 443.704 6.55293 447.538 10.5529 449.538C15.5529 452.038 35.0529 454.538 53.5529 449.538C55.3863 448.538 59.0529 445.838 59.0529 443.038V308.538H171.553C173.886 308.204 180 307 182 299.5C185.434 285.763 182.129 275.877 181.059 272.677L181 272.5C179.5 268 175.5 262.5 171.553 262.538H59.0529V147.538H186.053C187.386 147.371 190.253 145.538 191.053 139.538V105.038C190.553 103.538 188.853 100.638 186.053 101.038H17.0529C12.7196 101.371 4.25293 104.738 5.05293 115.538L5.55293 442.038Z" fill="#FAFAFA"/>
<path d="M405.11 196.8C404.776 195.3 405.01 191.9 408.61 190.3C416.11 186.3 435.609 180.7 453.609 190.3C454.609 190.8 456.709 192.8 457.109 196.8V368.301C457.109 370.301 457.5 374.5 457.609 375.301C458.5 383 464 397 475.109 402.301C482.943 406.134 501.5 410 516.609 405.301C517.282 405.042 518.133 404.745 519.121 404.4C523.111 403.004 529.338 400.827 535.109 397.301C540.943 393.634 553.609 384 557.609 374.801V196.8C557.609 195.134 558.28 191.685 560.609 190.3C567 186.5 587.5 180.499 606.609 190.3C607.893 190.959 609.609 193.082 609.609 196.8V374.801C609.276 380.8 609.009 395 610.609 403.8C611.943 413.467 614.5 433 614.609 434.8C614.715 436.547 614.85 439.126 610.609 441.3C604.109 444.634 587.909 450.7 575.109 448.3C572.943 447.8 569 445.5 567.109 441.3C565.443 437.634 561.809 427.1 560.609 414.3C552.276 422.8 531.5 438.5 516.609 444.8C509.943 448.3 492.5 453.5 475.109 451.3C461.5 450 434 443.5 418.609 422.8C415 417.946 405.109 402.301 405.109 375.301L405.11 196.8Z" fill="#FAFAFA"/>
<path fill-rule="evenodd" clip-rule="evenodd" d="M749.954 336.684H898.954C905.5 336.5 916.354 328.984 917.954 314.184C918.5 297 915 258 903.454 235.184C896 221.5 880 198.5 849.954 188.184C837.454 183.517 804.854 176.984 774.454 188.184C766 191 750.5 197.5 737.454 208.184C733 211.5 722 222 714.454 235.184C708.288 244.684 697.5 272 696.454 305.184C696.042 318.253 697.942 347.5 700.955 367.684C703 379 710.955 405.584 730.955 423.184C738.288 431.184 762.955 447.984 802.955 451.184C813.621 452.517 840.255 453.384 861.455 446.184C861.854 446.049 862.27 445.908 862.701 445.762L863.354 445.542L863.361 445.539C875.063 441.592 897.105 434.155 908.455 423.184C909.455 422.351 911.455 419.884 911.455 416.684C910.955 408.851 907.355 392.184 896.955 388.184C886.955 392.851 865.855 402.284 861.455 402.684C852.788 406.517 828.955 412.884 802.955 407.684C794.621 406.684 775.055 401.384 763.455 388.184C758.454 382.851 748.754 365.084 749.954 336.684ZM762.955 247.184C750.155 264.384 748.954 287.684 749.954 297.184H867.455C871.055 275.984 861.288 255.017 855.955 247.184C816.355 207.984 777.455 230.851 762.955 247.184Z" fill="#FAFAFA"/>
<path d="M1004.33 439.832C1004.16 442.332 1005.13 447.732 1010.33 449.332C1016.83 451.666 1034.03 454.932 1050.83 449.332C1052.5 448.666 1055.93 445.832 1056.33 439.832L1057 263.5C1057 263.5 1057.62 260.939 1057.83 260.332C1060 254 1074 241.5 1086.83 235.332C1094.5 231.5 1114.13 224.932 1139.33 235.332C1147 240 1153.5 250 1155.5 260.5L1156 263.5L1156.83 439.832C1156.5 442.166 1157.23 447.333 1162.83 449.332C1169.66 451.332 1187.63 454.133 1204.83 449.332C1206.5 448.166 1209.63 444.633 1208.83 439.832V263.332C1208.5 255.499 1207.14 239.14 1205.83 235.332C1204 230 1199.66 219.166 1192.83 211.832C1186 204.499 1178.5 197 1155.83 189.332C1143 185.666 1111.23 181.932 1086.83 196.332C1079.5 199.999 1063.13 209.733 1056.33 219.333L1053.33 223.833C1052.16 214.999 1048.73 196.533 1044.33 193.333C1042.83 191.999 1039.33 189.833 1035.33 189.833C1026.83 189.832 1008.43 191.132 1002.83 196.332C1002 196.999 1000.13 198.933 999.33 201.333C998.563 203.633 999.706 210.442 1000.39 214.544L1000.39 214.546L1000.4 214.557L1000.4 214.558C1000.61 215.799 1000.77 216.791 1000.83 217.333C1001.5 223.499 1002.83 236.033 1002.83 236.833L1004.33 439.832Z" fill="#FAFAFA"/>
<path d="M1439.45 240.096C1438.31 241.088 1436.65 242.496 1431.45 240.096C1419.61 235.096 1397.81 228.999 1387.45 227.096L1386.99 227.003C1376.15 224.796 1353.98 220.282 1330.95 240.096C1326.28 245.096 1316.25 257.896 1313.45 269.096C1305.61 298.762 1297.45 365.196 1327.45 393.596C1333.45 400.262 1353.85 412.796 1387.45 409.596C1395.95 408.262 1416.65 403.596 1431.45 395.596L1439.45 391.596C1441.11 390.596 1445.15 390.396 1447.95 397.596C1450.45 402.262 1455.55 412.896 1455.95 418.096C1456.28 420.596 1455.31 424.999 1450.45 429.596C1442.28 436.429 1418.25 450.496 1387.45 452.096C1375.45 452.929 1347.31 452.499 1327.45 446.096C1296.81 436.499 1233.35 396.296 1258.95 269.096C1261.28 260.096 1267.95 239.496 1275.95 229.096C1287.11 211.262 1318.81 177.499 1387.45 185.096C1400.31 185.999 1418.55 187.999 1436.95 197.096C1441.81 199.499 1448.95 203.296 1450.95 208.096C1451.61 209.429 1452.65 213.396 1451.45 218.596C1450.11 224.429 1445.31 234.999 1439.45 240.096Z" fill="#FAFAFA"/>
<path d="M1483.56 201.8C1483.42 201.486 1483.28 201.176 1483.13 200.866C1481.97 198.412 1480.81 195.973 1484.56 191.8C1485.91 190.304 1490.53 188.412 1497.56 187.8C1505.23 187.133 1521.34 187 1528.56 189.8C1531.05 190.764 1534.34 192.5 1536.06 198.3L1595.56 380.3H1597.06L1657.56 197.8C1658.23 195.634 1660.66 191 1665.06 189.8C1674.56 187.134 1696.16 184 1706.56 192.8C1707.56 194.133 1709.06 197.9 1707.06 202.3L1619.56 438.3L1581.06 541.3C1579.84 544.5 1576.84 549.5 1569.06 551.8C1561.84 553.5 1543.56 555.8 1533.56 549.8C1531.73 548.633 1529.34 545.5 1531.06 541.3L1570.56 442.8L1483.56 201.8Z" fill="#FAFAFA"/>
<path fill-rule="evenodd" clip-rule="evenodd" d="M1755 439.5C1755 442.833 1756.5 448.213 1762 450C1768.67 452.167 1786.3 455.2 1803.5 450C1806 449 1809.5 446 1809.5 439.5V308C1836.33 308.833 1892.5 308 1904 305.5C1917.17 304 1948.4 295.1 1968 271.5C1982.5 251 2002.8 195.7 1968 138.5C1962 128.667 1943.5 106.5 1904 103.5L1809.5 101H1789.5L1769 101.5C1764.5 101.5 1755.4 103.9 1755 115.5V439.5ZM1882.5 147.5H1809.5V261.5H1882.5C1908.5 261 1922.17 246.333 1926 238.5C1939.2 213.7 1931.5 183.5 1926 171.5C1916.8 153.1 1897 147.5 1882.5 147.5Z" fill="#FAFAFA"/>
<path fill-rule="evenodd" clip-rule="evenodd" d="M2164.36 285.891C2139.03 285.724 2084.26 287.491 2067.86 295.891C2047.03 296.891 2005.36 312.791 2005.36 368.391C2003.03 392.224 2010.96 441.791 2061.36 449.391C2075.53 452.557 2110.16 455.191 2135.36 440.391C2143.36 435.891 2160.86 424.291 2166.86 413.891C2168.36 422.891 2172.26 441.591 2175.86 444.391C2176.86 445.724 2180.86 448.391 2188.86 448.391C2196.86 447.891 2214.16 445.591 2219.36 440.391C2220.03 439.891 2221.36 438.091 2221.36 434.891C2220.69 431.391 2219.36 423.991 2219.36 422.391C2218.03 415.557 2215.56 399.691 2216.36 390.891V263.891C2216.53 253.391 2214.56 230.491 2205.36 222.891C2201.03 215.224 2186.76 198.091 2164.36 190.891C2154.19 187.557 2128.66 181.391 2107.86 183.391C2085.53 185.557 2037.06 193.991 2021.86 210.391C2021.03 211.391 2019.56 213.891 2020.36 215.891C2020.69 222.057 2023.56 236.291 2032.36 243.891C2033.36 244.724 2036.06 245.991 2038.86 244.391C2051.36 238.724 2079.26 227.491 2090.86 227.891C2112.69 223.057 2157.96 222.491 2164.36 258.891V285.891ZM2164.36 375.391V325.891C2120.36 319.491 2085.69 332.557 2073.86 339.891C2041.86 367.891 2060.53 394.557 2073.86 404.391C2109.46 421.591 2149.03 392.224 2164.36 375.391Z" fill="#FAFAFA"/>
<path d="M2355.18 187.266V135.766C2355.52 132.933 2354.18 126.766 2346.18 124.766C2341.85 123.433 2325.78 121.567 2314.18 124.767C2311.35 125.268 2306.08 128.166 2305.68 135.766V187.266H2275.68C2273.02 187.599 2267.98 190.566 2269.18 199.766V218.266C2269.02 221.099 2270.08 227.166 2275.68 228.766C2276.52 229.099 2279.28 229.766 2283.68 229.766H2302.68V389.766C2302.85 398.266 2304.98 417.166 2312.18 424.766C2316.85 432.599 2331.98 448.866 2355.18 451.266C2360.68 452.099 2375.28 452.766 2389.68 448.766C2394.51 447.433 2405.28 443.066 2409.68 436.266C2410.01 435.933 2410.68 434.766 2410.68 432.766C2410.01 426.266 2407.78 411.766 2404.18 405.766C2403.35 404.099 2400.58 401.466 2396.18 404.266C2393.51 405.933 2386.48 409.166 2379.68 408.766C2374.18 409.099 2362.48 408.466 2359.68 403.266C2357.68 401.099 2353.88 393.266 2354.68 379.266V229.766H2394.68C2397.51 229.766 2403.38 227.966 2404.18 220.766C2405.35 215.599 2406.98 203.266 2404.18 195.266C2403.51 192.599 2400.88 187.266 2395.68 187.266H2355.18Z" fill="#FAFAFA"/>
<path d="M2501.11 85.4372C2501.11 83.8434 2501.5 81 2504.61 78.9372C2511.44 75.1039 2532.49 65.9633 2550.11 79.4372C2551.5 80.5003 2552.5 81.501 2552.61 85.4372V220.937C2556.78 215.77 2567 207.001 2573.61 202.937C2590.94 190.437 2636.71 172.937 2681.11 202.937C2688.44 207.77 2703.41 224.137 2704.61 250.937V440.437C2704.5 442.501 2704 448.001 2696.61 450.437C2689 452.501 2670.61 453.537 2660.61 449.937C2658.27 449.093 2654 447.501 2653.61 440.437V270.937C2653.61 264.604 2652.11 250.537 2646.11 244.937C2636.94 233.604 2608.81 217.537 2569.61 243.937C2564.94 247.27 2555.01 255.837 2552.61 263.437V440.437C2552.5 443.501 2550.5 447.501 2545.61 449.937C2540.94 451.77 2525.5 455.501 2506.11 449.937C2503.67 449.237 2501.11 446.501 2501.11 440.437V85.4372Z" fill="#FAFAFA"/>
<path d="M3166.89 161.697L3165.09 382.171C3163.44 410.87 3184.91 409 3183.11 382.171L3184.91 161.697C3186.56 135.84 3165.09 137.712 3166.89 161.697Z" fill="#FAFAFA"/>
<path d="M3073.82 215.796L3072 332.204C3073.82 351.605 3090.18 346.754 3090.18 332.204L3092 215.796C3090.18 196.396 3073.82 201.245 3073.82 215.796Z" fill="#FAFAFA"/>
<path d="M2979 314.366L2980.82 217.633C2980.82 205.541 2997.18 201.512 2999 217.633L2997.18 314.366C2997.18 326.458 2980.82 330.488 2979 314.366Z" fill="#FAFAFA"/>
<path d="M3025 311.797V234.88C3026.67 217.129 3045 221.074 3045 234.88V311.797C3043.33 329.547 3025 323.631 3025 311.797Z" fill="#FAFAFA"/>
<path d="M3479.66 469.387C3396.45 457.907 3272 447.72 3175 503C3222.61 486.648 3350.18 457.032 3479.66 469.387Z" fill="#FAFAFA"/>
<path d="M3175 503C3090.13 471.624 2954.4 468.535 2884.02 471.255C2896.68 470.457 2909.7 469.239 2923.1 467.984C2994.54 461.297 3076.96 453.584 3175 503Z" fill="#FAFAFA"/>
<path d="M3305 311.797V234.88C3306.67 217.129 3325 221.074 3325 234.88V311.797C3323.33 329.547 3305 323.631 3305 311.797Z" fill="#FAFAFA"/>
<path d="M3351 314.366L3352.82 217.633C3352.82 205.541 3369.18 201.512 3371 217.633L3369.18 314.366C3369.18 326.458 3352.82 330.489 3351 314.366Z" fill="#FAFAFA"/>
<path d="M3259.82 215.796L3258 332.204C3259.82 351.605 3276.18 346.754 3276.18 332.204L3278 215.796C3276.18 196.396 3259.82 201.245 3259.82 215.796Z" fill="#FAFAFA"/>
<path d="M3211 351.449L3212.82 189.839C3212.67 172.074 3231 168.131 3231 189.839L3229.18 351.449C3229.33 371.186 3211 373.157 3211 351.449Z" fill="#FAFAFA"/>
<path d="M3119 351.449L3120.82 189.839C3120.67 172.074 3139 168.131 3139 189.839L3137.18 351.449C3137.33 371.186 3119 373.157 3119 351.449Z" fill="#FAFAFA"/>
<path d="M3479.66 469.387C3396.45 457.907 3272 447.72 3175 503M3479.66 469.387C3350.18 457.032 3222.61 486.648 3175 503M3479.66 469.387C3486.5 470.331 3491.91 467.104 3496.33 463.041C3500.75 458.977 3503.23 453.466 3503.23 447.72C3463.36 276.835 3457.19 184.012 3504 26.8308C3505 22.8306 3505 21.8306 3504 19.3306C3503 16.8306 3501.55 14.7704 3498.5 12.3308C3496.17 10.4675 3493.72 9.54565 3491.08 8.55111L3490.5 8.33057C3487 7.33057 3484.07 6.87414 3481 6.83057C3328.07 4.66098 3283.5 18.4305 3175 79.3306C3082 18.4305 3001.5 5.00015 2868.57 5.00015C2865.47 4.98941 2862.4 5.54251 2859.54 6.62756C2856.67 7.7126 2854.07 9.30814 2851.88 11.3222C2849.69 13.3363 2847.95 15.7291 2846.77 18.3626C2845.59 20.9962 2844.99 23.8185 2845 26.6668C2872.43 204.002 2870.44 295.273 2845 447.72C2845 461.099 2854.02 472.456 2868.57 472M3175 503C3090.13 471.624 2954.4 468.535 2884.02 471.255M3175 503C3076.96 453.584 2994.54 461.297 2923.1 467.984C2909.7 469.239 2896.68 470.457 2884.02 471.255M2884.02 471.255C2878.44 471.47 2873.27 471.723 2868.57 472M2884.02 471.255C2878.81 471.583 2873.66 471.841 2868.57 472M244.5 440.5C277.5 460.5 312.035 452.679 329.427 438.187C335.427 433.187 335.427 413.687 332.427 407.187C329.722 401.327 319.936 405.209 315.993 406.773C315.562 406.944 315.201 407.087 314.927 407.187C314.342 407.399 313.68 407.646 312.957 407.915C306.887 410.177 296.511 414.043 291 413C281.591 410.453 281.178 395.312 281.009 389.096L281 388.778C280.2 387.978 280.667 184.968 281 83.5636C280.427 77.6861 276.927 75.6861 275 74.7784C258.927 68.1861 241.354 71.5943 234.427 74.6865C229.25 76.9972 229 81.186 229 83.5636V388.778L229.086 391.848C229.804 417.69 230.13 429.429 244.5 440.5ZM10.5529 449.538C6.55293 447.538 5.55293 443.704 5.55293 442.038L5.05293 115.538C4.25293 104.738 12.7196 101.371 17.0529 101.038H186.053C188.853 100.638 190.553 103.538 191.053 105.038V139.538C190.253 145.538 187.386 147.371 186.053 147.538H59.0529V262.538H171.553C175.5 262.5 179.5 268 181 272.5L181.059 272.677C182.129 275.877 185.434 285.763 182 299.5C180 307 173.886 308.204 171.553 308.538H59.0529V443.038C59.0529 445.838 55.3863 448.538 53.5529 449.538C35.0529 454.538 15.5529 452.038 10.5529 449.538ZM408.61 190.3C405.01 191.9 404.776 195.3 405.11 196.8L405.109 375.301C405.109 402.301 415 417.946 418.609 422.8C434 443.5 461.5 450 475.109 451.3C492.5 453.5 509.943 448.3 516.609 444.8C531.5 438.5 552.276 422.8 560.609 414.3C561.809 427.1 565.443 437.634 567.109 441.3C569 445.5 572.943 447.8 575.109 448.3C587.909 450.7 604.109 444.634 610.609 441.3C614.85 439.126 614.715 436.547 614.609 434.8C614.5 433 611.943 413.467 610.609 403.8C609.009 395 609.276 380.8 609.609 374.801V196.8C609.609 193.082 607.893 190.959 606.609 190.3C587.5 180.499 567 186.5 560.609 190.3C558.28 191.685 557.609 195.134 557.609 196.8V374.801C553.609 384 540.943 393.634 535.109 397.301C529.338 400.827 523.111 403.004 519.121 404.4C518.133 404.745 517.282 405.042 516.609 405.301C501.5 410 482.943 406.134 475.109 402.301C464 397 458.5 383 457.609 375.301C457.5 374.5 457.109 370.301 457.109 368.301V196.8C456.709 192.8 454.609 190.8 453.609 190.3C435.609 180.7 416.11 186.3 408.61 190.3ZM898.954 336.684H749.954C748.754 365.084 758.454 382.851 763.455 388.184C775.055 401.384 794.621 406.684 802.955 407.684C828.955 412.884 852.788 406.517 861.455 402.684C865.855 402.284 886.955 392.851 896.955 388.184C907.355 392.184 910.955 408.851 911.455 416.684C911.455 419.884 909.455 422.351 908.455 423.184C897.105 434.155 875.063 441.592 863.361 445.539L863.354 445.542L862.701 445.762C862.27 445.908 861.854 446.049 861.455 446.184C840.255 453.384 813.621 452.517 802.955 451.184C762.955 447.984 738.288 431.184 730.955 423.184C710.955 405.584 703 379 700.955 367.684C697.942 347.5 696.042 318.253 696.454 305.184C697.5 272 708.288 244.684 714.454 235.184C722 222 733 211.5 737.454 208.184C750.5 197.5 766 191 774.454 188.184C804.854 176.984 837.454 183.517 849.954 188.184C880 198.5 896 221.5 903.454 235.184C915 258 918.5 297 917.954 314.184C916.354 328.984 905.5 336.5 898.954 336.684ZM749.954 297.184C748.954 287.684 750.155 264.384 762.955 247.184C777.455 230.851 816.355 207.984 855.955 247.184C861.288 255.017 871.055 275.984 867.455 297.184H749.954ZM1010.33 449.332C1005.13 447.732 1004.16 442.332 1004.33 439.832L1002.83 236.833C1002.83 236.033 1001.5 223.499 1000.83 217.333C1000.77 216.791 1000.61 215.799 1000.4 214.558L1000.4 214.557L1000.39 214.546L1000.39 214.544C999.706 210.442 998.563 203.633 999.33 201.333C1000.13 198.933 1002 196.999 1002.83 196.332C1008.43 191.132 1026.83 189.832 1035.33 189.833C1039.33 189.833 1042.83 191.999 1044.33 193.333C1048.73 196.533 1052.16 214.999 1053.33 223.833L1056.33 219.333C1063.13 209.733 1079.5 199.999 1086.83 196.332C1111.23 181.932 1143 185.666 1155.83 189.332C1178.5 197 1186 204.499 1192.83 211.832C1199.66 219.166 1204 230 1205.83 235.332C1207.14 239.14 1208.5 255.499 1208.83 263.332V439.832C1209.63 444.633 1206.5 448.166 1204.83 449.332C1187.63 454.133 1169.66 451.332 1162.83 449.332C1157.23 447.333 1156.5 442.166 1156.83 439.832L1156 263.5L1155.5 260.5C1153.5 250 1147 240 1139.33 235.332C1114.13 224.932 1094.5 231.5 1086.83 235.332C1074 241.5 1060 254 1057.83 260.332C1057.62 260.939 1057 263.5 1057 263.5L1056.33 439.832C1055.93 445.832 1052.5 448.666 1050.83 449.332C1034.03 454.932 1016.83 451.666 1010.33 449.332ZM1431.45 240.096C1436.65 242.496 1438.31 241.088 1439.45 240.096C1445.31 234.999 1450.11 224.429 1451.45 218.596C1452.65 213.396 1451.61 209.429 1450.95 208.096C1448.95 203.296 1441.81 199.499 1436.95 197.096C1418.55 187.999 1400.31 185.999 1387.45 185.096C1318.81 177.499 1287.11 211.262 1275.95 229.096C1267.95 239.496 1261.28 260.096 1258.95 269.096C1233.35 396.296 1296.81 436.499 1327.45 446.096C1347.31 452.499 1375.45 452.929 1387.45 452.096C1418.25 450.496 1442.28 436.429 1450.45 429.596C1455.31 424.999 1456.28 420.596 1455.95 418.096C1455.55 412.896 1450.45 402.262 1447.95 397.596C1445.15 390.396 1441.11 390.596 1439.45 391.596L1431.45 395.596C1416.65 403.596 1395.95 408.262 1387.45 409.596C1353.85 412.796 1333.45 400.262 1327.45 393.596C1297.45 365.196 1305.61 298.762 1313.45 269.096C1316.25 257.896 1326.28 245.096 1330.95 240.096C1353.98 220.282 1376.15 224.796 1386.99 227.003L1387.45 227.096C1397.81 228.999 1419.61 235.096 1431.45 240.096ZM1483.13 200.866C1483.28 201.176 1483.42 201.486 1483.56 201.8L1570.56 442.8L1531.06 541.3C1529.34 545.5 1531.73 548.633 1533.56 549.8C1543.56 555.8 1561.84 553.5 1569.06 551.8C1576.84 549.5 1579.84 544.5 1581.06 541.3L1619.56 438.3L1707.06 202.3C1709.06 197.9 1707.56 194.133 1706.56 192.8C1696.16 184 1674.56 187.134 1665.06 189.8C1660.66 191 1658.23 195.634 1657.56 197.8L1597.06 380.3H1595.56L1536.06 198.3C1534.34 192.5 1531.05 190.764 1528.56 189.8C1521.34 187 1505.23 187.133 1497.56 187.8C1490.53 188.412 1485.91 190.304 1484.56 191.8C1480.81 195.973 1481.97 198.412 1483.13 200.866ZM1762 450C1756.5 448.213 1755 442.833 1755 439.5V115.5C1755.4 103.9 1764.5 101.5 1769 101.5L1789.5 101H1809.5L1904 103.5C1943.5 106.5 1962 128.667 1968 138.5C2002.8 195.7 1982.5 251 1968 271.5C1948.4 295.1 1917.17 304 1904 305.5C1892.5 308 1836.33 308.833 1809.5 308V439.5C1809.5 446 1806 449 1803.5 450C1786.3 455.2 1768.67 452.167 1762 450ZM1809.5 147.5H1882.5C1897 147.5 1916.8 153.1 1926 171.5C1931.5 183.5 1939.2 213.7 1926 238.5C1922.17 246.333 1908.5 261 1882.5 261.5H1809.5V147.5ZM2067.86 295.891C2084.26 287.491 2139.03 285.724 2164.36 285.891V258.891C2157.96 222.491 2112.69 223.057 2090.86 227.891C2079.26 227.491 2051.36 238.724 2038.86 244.391C2036.06 245.991 2033.36 244.724 2032.36 243.891C2023.56 236.291 2020.69 222.057 2020.36 215.891C2019.56 213.891 2021.03 211.391 2021.86 210.391C2037.06 193.991 2085.53 185.557 2107.86 183.391C2128.66 181.391 2154.19 187.557 2164.36 190.891C2186.76 198.091 2201.03 215.224 2205.36 222.891C2214.56 230.491 2216.53 253.391 2216.36 263.891V390.891C2215.56 399.691 2218.03 415.557 2219.36 422.391C2219.36 423.991 2220.69 431.391 2221.36 434.891C2221.36 438.091 2220.03 439.891 2219.36 440.391C2214.16 445.591 2196.86 447.891 2188.86 448.391C2180.86 448.391 2176.86 445.724 2175.86 444.391C2172.26 441.591 2168.36 422.891 2166.86 413.891C2160.86 424.291 2143.36 435.891 2135.36 440.391C2110.16 455.191 2075.53 452.557 2061.36 449.391C2010.96 441.791 2003.03 392.224 2005.36 368.391C2005.36 312.791 2047.03 296.891 2067.86 295.891ZM2164.36 325.891V375.391C2149.03 392.224 2109.46 421.591 2073.86 404.391C2060.53 394.557 2041.86 367.891 2073.86 339.891C2085.69 332.557 2120.36 319.491 2164.36 325.891ZM2355.18 135.766V187.266H2395.68C2400.88 187.266 2403.51 192.599 2404.18 195.266C2406.98 203.266 2405.35 215.599 2404.18 220.766C2403.38 227.966 2397.51 229.766 2394.68 229.766H2354.68V379.266C2353.88 393.266 2357.68 401.099 2359.68 403.266C2362.48 408.466 2374.18 409.099 2379.68 408.766C2386.48 409.166 2393.51 405.933 2396.18 404.266C2400.58 401.466 2403.35 404.099 2404.18 405.766C2407.78 411.766 2410.01 426.266 2410.68 432.766C2410.68 434.766 2410.01 435.933 2409.68 436.266C2405.28 443.066 2394.51 447.433 2389.68 448.766C2375.28 452.766 2360.68 452.099 2355.18 451.266C2331.98 448.866 2316.85 432.599 2312.18 424.766C2304.98 417.166 2302.85 398.266 2302.68 389.766V229.766H2283.68C2279.28 229.766 2276.52 229.099 2275.68 228.766C2270.08 227.166 2269.02 221.099 2269.18 218.266V199.766C2267.98 190.566 2273.02 187.599 2275.68 187.266H2305.68V135.766C2306.08 128.166 2311.35 125.268 2314.18 124.767C2325.78 121.567 2341.85 123.433 2346.18 124.766C2354.18 126.766 2355.52 132.933 2355.18 135.766ZM2504.61 78.9372C2501.5 81 2501.11 83.8434 2501.11 85.4372V440.437C2501.11 446.501 2503.67 449.237 2506.11 449.937C2525.5 455.501 2540.94 451.77 2545.61 449.937C2550.5 447.501 2552.5 443.501 2552.61 440.437V263.437C2555.01 255.837 2564.94 247.27 2569.61 243.937C2608.81 217.537 2636.94 233.604 2646.11 244.937C2652.11 250.537 2653.61 264.604 2653.61 270.937V440.437C2654 447.501 2658.27 449.093 2660.61 449.937C2670.61 453.537 2689 452.501 2696.61 450.437C2704 448.001 2704.5 442.501 2704.61 440.437V250.937C2703.41 224.137 2688.44 207.77 2681.11 202.937C2636.71 172.937 2590.94 190.437 2573.61 202.937C2567 207.001 2556.78 215.77 2552.61 220.937V85.4372C2552.5 81.501 2551.5 80.5003 2550.11 79.4372C2532.49 65.9633 2511.44 75.1039 2504.61 78.9372ZM3165.09 382.171L3166.89 161.697C3165.09 137.712 3186.56 135.84 3184.91 161.697L3183.11 382.171C3184.91 409 3163.44 410.87 3165.09 382.171ZM3072 332.204L3073.82 215.796C3073.82 201.245 3090.18 196.396 3092 215.796L3090.18 332.204C3090.18 346.754 3073.82 351.605 3072 332.204ZM2980.82 217.633L2979 314.366C2980.82 330.488 2997.18 326.458 2997.18 314.366L2999 217.633C2997.18 201.512 2980.82 205.541 2980.82 217.633ZM3025 234.88V311.797C3025 323.631 3043.33 329.547 3045 311.797V234.88C3045 221.074 3026.67 217.129 3025 234.88ZM3305 234.88V311.797C3305 323.631 3323.33 329.547 3325 311.797V234.88C3325 221.074 3306.67 217.129 3305 234.88ZM3352.82 217.633L3351 314.366C3352.82 330.489 3369.18 326.458 3369.18 314.366L3371 217.633C3369.18 201.512 3352.82 205.541 3352.82 217.633ZM3258 332.204L3259.82 215.796C3259.82 201.245 3276.18 196.396 3278 215.796L3276.18 332.204C3276.18 346.754 3259.82 351.605 3258 332.204ZM3212.82 189.839L3211 351.449C3211 373.157 3229.33 371.186 3229.18 351.449L3231 189.839C3231 168.131 3212.67 172.074 3212.82 189.839ZM3120.82 189.839L3119 351.449C3119 373.157 3137.33 371.186 3137.18 351.449L3139 189.839C3139 168.131 3120.67 172.074 3120.82 189.839Z" stroke="#FAFAFA" stroke-width="10"/>
</svg>
